# xmcd CD database file
#
# Track frame offsets:
#	150
#	24982
#	50235
#	75385
#
# Disc length: 1296 seconds
#
# Revision: 0
# Processed by: cddbd v1.5.1PL0 Copyright (c) Steve Scherf et al.
# Submitted via: CDex 1.51
#
DISCID=26050e04
DTITLE=Urara Takano - Le Blanche Elephant
DYEAR=2001
DGENRE=Jazz
TTITLE0=Yume ha dare to mimashita
TTITLE1=Elevator no naka de kimi ha...
TTITLE2=Le Blanche Elephant
TTITLE3=Happou shu no uta
EXTD=YEAR: 2001
EXTT0=
EXTT1=
EXTT2=
EXTT3=
PLAYORDER=
